_________________________  Visit us at _________________________
  
http://p2pdl.com  ____________________________  http://p2pdl.com

 
http://www.shotpix.com/images/44289433092877826519.jpg


English Vinglish 2012 BRRip 720p x264 AAC Hindi - ViZNU [P2PDL]
				
Genre: Comedy | Drama | Family
A quiet, sweet tempered housewife endures small slights from her well-educated husband and daughter everyday because of her inability to speak and understand English.
Director: Gauri Shinde
Stars: Sridevi, Adil Hussain, Mehdi Nebbou 
Rated: N/A

Info:  
http://www.imdb.com/title/tt2181931/

Trailer: 



General
Format                         : MPEG-4
Format profile                 : Base Media / Version 2
Codec ID                       : mp42
File size                      : 718 MiB
Duration                       : 2h 13mn
Overall bit rate mode          : Variable
Overall bit rate               : 751 Kbps
Movie name                     : English Vinglish 2012 BRRip 720p x264 AAC - ViZNU [P2PDL]

Source                         : 720p.BluRay [DDR] (Thanks)

Video
Format                         : AVC
Bit rate mode                  : Variable
Bit rate                       : 665 Kbps
Width                          : 1 280 pixels
Height                         : 544 pixels
Display aspect ratio           : 2.35:1
Frame rate mode                : Variable
Frame rate                     : 24.000 fps
Scan type                      : Progressive
Bits/(Pixel*Frame)             : 0.040
Stream size                    : 636 MiB (89%)
Writing library                : x264 core 129

Audio
Format                         : AAC
Bit rate                       : 79.9 Kbps
Channel(s)                     : 2 channels
Channel positions              : Front: L R
Sampling rate                  : 48.0 KHz
Stream size                    : 76.4 MiB (11%)
Language                       : Hindi

Subtitle                       : Yes ( English)


Screens:
 
http://www.shotpix.com/images/92179117846157195234.jpg 
http://www.shotpix.com/images/60408997594980411380.jpg 
http://www.shotpix.com/images/01197472345270337876.jpg 
http://www.shotpix.com/images/35340558159548138803.jpg 
http://www.shotpix.com/images/13296899742585965630.jpg


Thumbs:
 
http://www.shotpix.com/images/10636185299935891654.jpg

----------------------------------------------------------------------------------------------------


Recommend to you to use latest version of VLC player. Install K-Lite Codec Pack or shark007 codecs
in case of any kind of problem in playback (For non-VLC Media Player users). Alternatively, install
Core AVC codecs, the fastest decoder that there is coupled with Community Center Codec Pack and play
on Windows Media Player Classic. Check sample to be sure.
Enjoy!

Greets to: VYTO, a2zRG, MusiK_KinG, Neon, Kuroyukihime, TorDigger, Ash968, StyLishSaLH and staff members at
ExtraTorrent, TPB, H33T, KAT, 1337x, PublicHD, Ahashare, BTScene, SilverTorrent, LimeTorrents, TorrentMafia,
P2PDL, and all others.

Encoder Notes: Looking For Early Access To Anything You Can Provide DVDScr, R5, DVDR, BluRay, Direct
Audio, Early Music Releases, Seedboxes, Dedicated Servers anything u can provide, Advance / Promo CDs/
DVDs. If You Got anything to offer contact me at "prg@hush.com".